<svg width="220" height="220" viewBox="0 0 220 220" fill="none" xmlns="http://www.w3.org/2000/svg">
<path fill-rule="evenodd" clip-rule="evenodd" d="M84.5252 95.6704C84.5252 102.023 82.7578 107.668 80.0255 111.659C77.2839 115.662 73.7483 117.792 70.1484 117.792C66.5483 117.792 63.0128 115.662 60.2714 111.659C57.5389 107.668 55.7717 102.023 55.7717 95.6704C55.7717 89.3184 57.5389 83.6726 60.2714 79.6826C63.0128 75.679 66.5483 73.5493 70.1484 73.5493C73.7483 73.5493 77.2839 75.679 80.0255 79.6826C82.7578 83.6726 84.5252 89.3184 84.5252 95.6704ZM73.871 119.552C72.6737 119.948 71.4278 120.157 70.1484 120.157C69.1721 120.157 68.2155 120.035 67.2851 119.802L62.5649 196.074L62.5623 196.118L62.556 196.162C62.1773 198.911 62.336 203.05 63.6281 206.446C64.9079 209.81 67.1686 212.197 70.9529 212.197V214.562C65.7941 214.562 62.865 211.157 61.39 207.28C59.9347 203.454 59.769 198.929 60.1808 195.886L64.9416 118.954C58.2299 115.755 53.3804 106.54 53.3804 95.6704C53.3804 82.1468 60.8876 71.1837 70.1484 71.1837C79.409 71.1837 86.9165 82.1468 86.9165 95.6704C86.9165 106.076 82.4715 114.967 76.203 118.512L80.943 195.88C81.3507 198.877 81.3976 203.39 80.152 207.219C79.5231 209.152 78.54 210.987 77.032 212.346C75.4992 213.728 73.4924 214.556 70.9691 214.556V212.19C72.9173 212.19 74.344 211.569 75.4213 210.598C76.5232 209.604 77.3267 208.181 77.8757 206.494C78.9793 203.101 78.953 198.95 78.5677 196.155L78.5615 196.111L78.5589 196.067L73.871 119.552Z" fill="white"/>
<path d="M174.128 172.137C174.603 171.683 174.616 170.934 174.158 170.464C173.699 169.994 172.942 169.981 172.467 170.435L174.128 172.137ZM119.369 196.538L119.508 197.713L119.369 196.538ZM21.7377 141.883L20.6295 142.327L21.7377 141.883ZM51.493 33.9827L50.7663 33.0435L51.493 33.9827ZM164.552 33.7513L163.829 34.6935L164.552 33.7513ZM196.894 82.9121C197.071 83.5416 197.73 83.9104 198.366 83.7358C199.002 83.5614 199.375 82.9095 199.199 82.28L196.894 82.9121ZM178.347 87.999C178.524 88.6285 179.182 88.9973 179.819 88.8227C180.455 88.6482 180.828 87.9964 180.652 87.367L178.347 87.999ZM108.023 34.0267L108.025 35.2095L108.023 34.0267ZM36.7709 87.9749L35.6174 87.6636L36.7709 87.9749ZM39.5764 134.735L38.4683 135.179L39.5764 134.735ZM119.497 177.977L119.636 179.151L119.497 177.977ZM163.126 158.787C163.601 158.333 163.615 157.585 163.156 157.115C162.698 156.644 161.94 156.631 161.465 157.085L163.126 158.787ZM59.1184 163.64C59.6189 164.066 60.3738 164.01 60.8045 163.515C61.2354 163.02 61.1788 162.273 60.6783 161.847L59.1184 163.64ZM57.5033 188.084C58.0538 188.444 58.7958 188.296 59.1605 187.751C59.5252 187.206 59.3748 186.472 58.8243 186.112L57.5033 188.084ZM83.7704 174.585C83.1563 174.345 82.4618 174.643 82.2189 175.251C81.9762 175.858 82.2772 176.545 82.8913 176.785L83.7704 174.585ZM91.4194 179.198C92.0684 179.319 92.694 178.897 92.8169 178.256C92.9398 177.614 92.5134 176.995 91.8644 176.873L91.4194 179.198ZM115.436 177.225C114.779 177.29 114.3 177.87 114.365 178.52C114.431 179.17 115.017 179.644 115.674 179.579L115.436 177.225ZM91.7203 197.697C92.3676 197.827 92.9984 197.413 93.1292 196.772C93.26 196.132 92.8415 195.508 92.1942 195.378L91.7203 197.697ZM83.717 193.075C83.0919 192.864 82.4126 193.194 82.1993 193.813C81.9862 194.431 82.3198 195.103 82.9449 195.314L83.717 193.075ZM115.43 195.783C114.773 195.852 114.297 196.434 114.366 197.083C114.435 197.733 115.024 198.204 115.68 198.136L115.43 195.783ZM172.467 170.435C157.96 184.287 139.257 193.045 119.23 195.363L119.508 197.713C140.054 195.334 159.244 186.349 174.128 172.137L172.467 170.435ZM22.8459 141.439C15.2757 122.952 14.0497 102.518 19.3562 83.2752L17.0492 82.6528C11.6049 102.395 12.8627 123.36 20.6295 142.327L22.8459 141.439ZM19.3562 83.2752C24.6628 64.0325 36.2083 47.045 52.2197 34.922L50.7663 33.0435C34.339 45.4813 22.4936 62.9101 17.0492 82.6528L19.3562 83.2752ZM52.2197 34.922C68.2309 22.799 87.8227 16.2109 107.985 16.1697L107.98 13.8041C87.2939 13.8464 67.1934 20.6056 50.7663 33.0435L52.2197 34.922ZM107.985 16.1697C128.148 16.1284 147.767 22.6363 163.829 34.6935L165.275 32.8091C148.796 20.4386 128.667 13.7618 107.98 13.8041L107.985 16.1697ZM163.829 34.6935C179.891 46.7509 191.507 63.6912 196.894 82.9121L199.199 82.28C193.672 62.5597 181.754 45.1797 165.275 32.8091L163.829 34.6935ZM180.652 87.367C176.251 71.6649 166.761 57.8264 153.64 47.9763L152.194 49.861C164.898 59.3976 174.086 72.7963 178.347 87.999L180.652 87.367ZM153.64 47.9763C140.519 38.1265 124.492 32.8103 108.02 32.8439L108.025 35.2095C123.973 35.1768 139.49 40.3241 152.194 49.861L153.64 47.9763ZM108.02 32.8439C91.5488 32.8777 75.544 38.2594 62.4641 48.163L63.9175 50.0415C76.5816 40.4528 92.0775 35.2421 108.025 35.2095L108.02 32.8439ZM62.4641 48.163C49.3844 58.0665 39.9526 71.9438 35.6174 87.6636L37.9245 88.2862C42.1217 73.0662 51.2536 59.6302 63.9175 50.0415L62.4641 48.163ZM35.6174 87.6636C31.2824 103.383 32.2839 120.076 38.4683 135.179L40.6846 134.291C34.697 119.669 33.7273 103.506 37.9245 88.2862L35.6174 87.6636ZM119.636 179.151C135.996 177.258 151.275 170.103 163.126 158.787L161.465 157.085C149.991 168.041 135.198 174.968 119.358 176.802L119.636 179.151ZM38.4683 135.179C42.9871 146.214 50.0908 155.954 59.1184 163.64L60.6783 161.847C51.9376 154.406 45.0599 144.975 40.6846 134.291L38.4683 135.179ZM58.8243 186.112C43.3934 175.998 29.845 158.532 22.8459 141.439L20.6295 142.327C27.7873 159.807 41.6229 177.675 57.5033 188.084L58.8243 186.112ZM82.8913 176.785C85.6712 177.872 88.5233 178.655 91.4194 179.198L91.8644 176.873C89.0996 176.355 86.3946 175.612 83.7704 174.585L82.8913 176.785ZM115.674 179.579C117 179.448 118.322 179.304 119.636 179.151L119.358 176.802C118.054 176.953 116.746 177.096 115.436 177.225L115.674 179.579ZM92.1942 195.378C89.5183 194.843 86.7303 194.092 83.717 193.075L82.9449 195.314C86.0452 196.36 88.9329 197.14 91.7203 197.697L92.1942 195.378ZM119.23 195.363C117.921 195.515 116.657 195.656 115.43 195.783L115.68 198.136C116.92 198.007 118.193 197.865 119.508 197.713L119.23 195.363Z" fill="white"/>
<path fill-rule="evenodd" clip-rule="evenodd" d="M95.6482 72.1389C95.521 71.4979 94.8926 71.0803 94.2445 71.2062C93.7091 71.31 93.3279 71.7529 93.2835 72.265L89.3292 108.095C88.6006 114.697 92.9795 120.582 99.1792 122.125L98.2626 122.069L93.4748 199.436C93.063 202.479 93.2287 207.003 94.6843 210.829C96.159 214.706 99.0881 218.112 104.247 218.112V215.746C100.463 215.746 98.2019 213.36 96.9223 209.996C95.6303 206.599 95.4713 202.46 95.8503 199.711L95.8563 199.668L95.8589 199.624L100.638 122.402C101.215 122.478 101.804 122.517 102.404 122.517H104.123C104.946 122.517 105.75 122.443 106.528 122.301L111.854 199.625L111.856 199.665L111.862 199.704C112.247 202.5 112.273 206.651 111.17 210.043C110.621 211.73 109.817 213.154 108.715 214.147C107.638 215.119 106.211 215.739 104.263 215.739V218.105C106.786 218.105 108.793 217.278 110.326 215.896C111.834 214.536 112.817 212.701 113.446 210.768C114.692 206.937 114.645 202.422 114.237 199.425L108.879 121.643C114.348 119.545 117.983 113.943 117.161 107.799L112.401 72.2206C112.335 71.6956 111.917 71.2618 111.362 71.1932C110.707 71.112 110.109 71.5719 110.027 72.2201L107.627 91.2179L105.226 72.2201C105.152 71.6308 104.647 71.1875 104.047 71.184C103.447 71.1804 102.937 71.6178 102.855 72.2064L99.9 93.5561L95.6482 72.1389ZM111.248 81.6332L108.813 100.901C108.738 101.492 108.23 101.937 107.627 101.937C107.024 101.937 106.515 101.492 106.44 100.901L103.986 81.475L101.295 100.914C101.215 101.487 100.729 101.919 100.145 101.936C99.5604 101.953 99.0496 101.549 98.937 100.982L94.8127 80.2056L91.7064 108.351C91.011 114.65 95.9983 120.152 102.404 120.152H104.123C110.627 120.152 115.644 114.488 114.791 108.11L111.248 81.6332Z" fill="white"/>
<path d="M148.031 124.566C147.084 124.566 146.151 124.296 145.233 123.757C144.315 123.246 143.856 122.252 143.856 120.776C143.856 120.095 143.985 119.186 144.243 118.051C144.53 116.915 145.032 115.212 145.75 112.941L146.309 111.153C147.228 108.229 147.902 105.773 148.332 103.786C148.791 101.799 149.021 99.6276 149.021 97.2714C149.021 95.4547 148.82 94.1063 148.418 93.2263C148.045 92.3463 147.371 91.9063 146.395 91.9063C145.104 91.9063 144.085 92.545 143.339 93.8224C142.622 95.0998 142.263 96.5476 142.263 98.1656C142.263 99.4147 142.478 100.451 142.909 101.274C141.56 101.274 140.556 100.962 139.896 100.337C139.236 99.7127 138.906 98.8895 138.906 97.8676C138.906 96.7037 139.279 95.5256 140.025 94.3334C140.8 93.1411 141.818 92.1618 143.081 91.3953C144.372 90.6005 145.75 90.2031 147.213 90.2031C149.136 90.2031 150.614 90.9127 151.647 92.3321C152.68 93.7514 153.196 95.7669 153.196 98.3785C153.196 100.167 152.967 102.055 152.507 104.042C152.048 106 151.345 108.456 150.398 111.408C150.312 111.72 150.212 112.033 150.097 112.345C149.982 112.657 149.867 112.998 149.753 113.367C149.179 114.985 148.72 116.404 148.375 117.625C148.06 118.846 147.902 120.038 147.902 121.202C147.902 121.741 147.959 122.11 148.074 122.309C148.217 122.536 148.476 122.65 148.849 122.65C150.284 122.65 151.919 121.514 153.756 119.243C155.621 116.944 157.285 114.261 158.749 111.195C160.241 108.13 161.131 105.617 161.418 103.659C162.422 103.659 163.24 103.942 163.871 104.51C164.531 105.078 164.861 105.66 164.861 106.256C164.861 106.795 164.33 108.286 163.268 110.727C162.293 112.998 161.518 114.957 160.944 116.603C160.399 118.221 160.126 119.697 160.126 121.031C160.126 121.628 160.198 122.039 160.341 122.266C160.514 122.522 160.815 122.65 161.245 122.65C162.824 122.65 164.804 121.23 167.185 118.391C169.596 115.524 171.705 112.16 173.513 108.3C175.321 104.411 176.224 101.075 176.224 98.2934C176.224 96.8456 175.966 95.7811 175.45 95.0998C174.933 94.3902 174.216 93.8792 173.298 93.5669C173.785 92.7721 174.316 92.176 174.89 91.7785C175.493 91.3811 176.038 91.1824 176.526 91.1824C177.014 91.1824 177.487 91.3811 177.946 91.7785C178.434 92.1476 178.836 92.7295 179.151 93.5244C179.467 94.3192 179.625 95.2702 179.625 96.3773C179.625 99.3863 178.534 103.162 176.354 107.704C174.173 112.217 171.533 116.163 168.434 119.541C165.334 122.891 162.508 124.566 159.954 124.566C158.835 124.566 157.902 124.225 157.156 123.544C156.439 122.891 156.08 122.011 156.08 120.904C156.08 120.308 156.224 119.584 156.511 118.732C153.383 122.621 150.556 124.566 148.031 124.566ZM194.04 124.566C192.347 124.566 190.811 124.126 189.434 123.246C188.057 122.394 186.966 121.159 186.163 119.541C185.388 117.923 185.001 116.035 185.001 113.878C185.001 110.301 185.904 106.668 187.712 102.977C189.549 99.2869 191.931 96.2495 194.857 93.865C197.784 91.4521 200.783 90.2456 203.854 90.2456C205.03 90.2456 206.006 90.6431 206.781 91.4379C206.321 91.3811 205.905 91.3527 205.532 91.3527C203.122 91.3527 200.654 92.545 198.129 94.9295C195.632 97.314 193.566 100.295 191.931 103.871C190.295 107.448 189.477 110.869 189.477 114.133C189.477 116.575 189.965 118.59 190.941 120.18C191.945 121.741 193.48 122.522 195.546 122.522C198.043 122.522 200.324 121.344 202.39 118.988C204.485 116.631 206.121 113.708 207.297 110.216C208.502 106.696 209.105 103.346 209.105 100.167C209.105 98.6056 208.947 97.2005 208.631 95.9514C208.344 94.674 207.857 94.0353 207.168 94.0353C206.565 94.0353 205.862 94.5463 205.059 95.5682C204.284 96.5618 203.567 97.7682 202.907 99.1876C202.247 100.607 201.802 101.884 201.572 103.02C199.764 102.651 198.861 101.828 198.861 100.55C198.861 99.5566 199.334 98.4069 200.281 97.1011C201.228 95.7953 202.361 94.674 203.681 93.7373C205.001 92.7721 206.192 92.2895 207.254 92.2895C208.775 92.2895 209.837 93.2405 210.439 95.1424C211.042 97.0443 211.343 99.2302 211.343 101.7C211.343 106.242 210.439 110.259 208.631 113.75C206.824 117.213 204.571 119.882 201.874 121.755C199.205 123.629 196.594 124.566 194.04 124.566ZM148.534 160.05C148.879 159.028 150.543 155.408 153.527 149.191C157.918 139.767 160.859 133.437 162.351 130.2C162.61 129.633 162.739 129.164 162.739 128.795C162.739 128.171 162.323 127.859 161.49 127.859C160.371 127.859 159.424 128.213 158.65 128.923C157.875 129.604 157.287 130.47 156.885 131.52C156.512 132.571 156.325 133.635 156.325 134.714C156.325 135.31 156.383 135.991 156.497 136.758C155.55 136.758 154.804 136.36 154.259 135.566C153.714 134.742 153.441 133.848 153.441 132.883C153.441 131.719 153.886 130.584 154.776 129.477C155.665 128.341 156.799 127.433 158.176 126.751C159.582 126.042 160.96 125.687 162.308 125.687C163.427 125.687 164.346 125.999 165.063 126.624C165.809 127.22 166.369 128.284 166.742 129.817C167.143 131.35 167.344 133.493 167.344 136.247C167.344 138.234 167.187 141.314 166.871 145.487C166.641 148.553 166.527 150.511 166.527 151.363C167.387 148.808 168.607 145.955 170.185 142.804C171.763 139.653 173.327 136.744 174.877 134.075C176.455 131.379 177.689 129.377 178.579 128.071C179.038 127.362 179.425 126.879 179.741 126.624C180.057 126.34 180.458 126.198 180.946 126.198C181.348 126.198 181.979 126.354 182.84 126.666C182.266 127.887 181.52 130.371 180.602 134.118C179.683 137.865 178.88 141.811 178.191 145.955C177.531 150.071 177.201 153.393 177.201 155.919C177.201 156.799 177.244 157.452 177.33 157.878C177.417 158.304 177.531 158.715 177.675 159.113C177.847 159.539 177.976 159.851 178.062 160.05C176.828 160.05 175.896 159.865 175.264 159.496C174.633 159.155 174.203 158.588 173.973 157.793C173.743 157.026 173.629 155.933 173.629 154.514C173.629 151.675 173.93 148.666 174.533 145.487C175.164 142.308 176.082 138.419 177.287 133.82C175.48 136.375 173.5 139.994 171.347 144.678C169.195 149.362 167.603 153.208 166.57 156.217L166.268 156.302C166.067 156.388 165.867 156.43 165.666 156.43C164.719 156.43 164.087 155.891 163.772 154.812C163.485 153.733 163.341 152.016 163.341 149.66C163.341 148.212 163.399 145.785 163.513 142.379C163.628 138.802 163.686 136.19 163.686 134.544L163.643 132.031L159.209 142.336C157.086 147.332 155.493 150.966 154.431 153.237C153.398 155.479 152.408 157.168 151.461 158.304C150.543 159.468 149.567 160.05 148.534 160.05ZM198.613 160.05C195.858 160.05 194.452 158.957 194.394 156.771C194.394 156.033 194.523 155.167 194.782 154.173C195.069 153.151 195.442 151.931 195.901 150.511C196.848 147.673 197.852 144.933 198.914 142.293C200.004 139.625 201.339 136.446 202.917 132.755L204.466 129.136C201.626 129.164 199.301 129.264 197.493 129.434C195.714 129.576 193.835 129.817 191.855 130.158C192.027 128.483 193.089 127.319 195.04 126.666C196.991 126.013 199.732 125.687 203.261 125.687C205.586 125.687 208.47 125.857 211.913 126.198C214.926 126.482 217.136 126.624 218.542 126.624C217.394 127.702 215.859 128.398 213.936 128.71C212.042 128.994 209.761 129.136 207.092 129.136C204.739 134.87 202.415 141.91 200.119 150.256C199.459 152.669 199.014 154.4 198.785 155.451C198.584 156.501 198.483 157.622 198.483 158.815C198.483 159.212 198.526 159.624 198.613 160.05Z" fill="#E3A000"/>
</svg>
